<?xml version="1.0"?>
<svg width="640" height="480" xmlns="http://www.w3.org/2000/svg" xmlns:svg="http://www.w3.org/2000/svg" xmlns:xlink="http://www.w3.org/1999/xlink" preserveAspectRatio="xMidYMid meet" version="1.0">
 <!-- Created with SVG-edit - https://github.com/SVG-Edit/svgedit-->
 <defs>
  <symbol height="1080" id="svg_3" preserveAspectRatio="xMidYMid meet" version="1" width="1080" xmlns="http://www.w3.org/2000/svg" xmlns:svg="http://www.w3.org/2000/svg">
   <g class="layer">
    <title>Layer 1</title>
    <g fill="#000000" id="svg_1" transform="matrix(0.1 0 0 -0.1 0 0)">
     <path d="m2750,-3534l0,-313l93,-5c149,-8 231,-58 289,-176l33,-67l0,-1375l0,-1375l-33,-67c-58,-118 -140,-168 -289,-176l-93,-5l0,-313l0,-314l1049,0l1050,0l1,314l0,314l-97,4c-112,5 -170,28 -236,95c-73,72 -81,99 -84,268c-7,364 -8,535 -3,535c3,0 200,-195 439,-434l434,-434l-53,-16c-30,-9 -87,-16 -127,-16l-73,0l0,-315l0,-315l1940,0l1940,0l0,735l0,735l-315,0l-315,0l0,-100c0,-136 -22,-236 -76,-349c-80,-164 -234,-296 -419,-358l-80,-27l-365,-4c-357,-3 -367,-3 -425,19c-71,26 -141,89 -175,156l-25,48l0,1395l0,1395l27,51c57,108 152,165 288,172c47,3 88,10 93,16c4,6 7,147 6,314l-1,302l-1049,0l-1049,0l0,-315l0,-315l65,0c57,0 69,-3 90,-25c53,-52 58,-46 -372,-477c-219,-219 -400,-398 -403,-398c-5,0 -4,169 3,535c3,169 11,196 84,268c66,67 124,90 236,95l97,4l0,314l-1,314l-1050,0l-1049,0l0,-314zm3805,-429c-14,-29 -29,-82 -34,-118c-5,-37 -9,-629 -8,-1424l2,-1360l22,-66c44,-129 154,-259 266,-313c112,-55 143,-58 565,-54c354,4 393,6 457,25c353,103 600,366 672,718l18,90l103,2l102,1l0,-524l0,-524l-1730,0l-1730,0l0,108l0,108l53,17c126,40 242,136 304,254c65,121 63,64 63,1403l0,1216l43,41c141,135 375,284 572,364c79,32 249,87 272,88c8,1 3,-18 -12,-52zm-1085,-1064l0,-418l-205,205c-113,113 -205,209 -205,215c0,8 399,415 407,415c2,0 3,-188 3,-417zm0,-1240c0,-344 -4,-540 -11,-574l-11,-51l-94,93l-94,94l0,585l0,585l105,-105l105,-105l0,-522z" fill="#007fff" id="svg_2"/>
    </g>
   </g>
  </symbol>
 </defs>
 <g class="layer">
  <title>Layer 1</title>
  <rect fill="#007fff" height="114.12" id="svg_10" stroke="#007fff" transform="matrix(1 0 0 1 0 0)" width="19.8" x="275.49" y="239.31"/>
  <use id="svg_6" transform="matrix(0.827483 0 0 0.827483 -157.232 -217.16)" x="0" xlink:href="#svg_3" y="0"/>
  <path d="m295.89,163.7l17.45,-16.58c0,0 -1,194.91 -1,195.41c0,0.5 0,10.05 0,10.05c0,0 -4.98,12.06 -4.98,12.06c0,0 -6.48,9.54 -6.48,9.54c0,0 -10.47,7.54 -10.47,7.54c0,0 -8.47,4.52 -8.47,4.52c0,0 -3.49,1.51 -3.49,1.51c0,0 0.5,16.58 0.5,16.58c0,0 285.11,0.5 285.11,0.5c0,0 0,-86.4 0,-86.4c0,0 -16.95,-0.5 -16.95,-0.5c0,0 -4.49,19.09 -4.49,19.09c0,0 -6.98,13.56 -6.98,13.56c0,0 -11.46,15.07 -11.46,15.07c0,0 -14.45,11.55 -14.95,11.55c-0.5,0 -16.95,7.03 -16.95,7.03c0,0 -20.44,2.51 -20.44,2.51c0,0 -55.83,-0.5 -55.83,-0.5c0,0 -15.95,-7.03 -15.95,-7.03c0,0 -9.97,-11.05 -9.97,-11.05c0,0 -5.48,-10.55 -5.48,-10.55c0,0 -2.49,-7.54 -2.49,-7.54c0,0 1,-231.58 1,-231.58c0,0 3.99,-13.06 3.99,-13.06c0,0 35.89,-5.53 35.89,-5.53c0,0 -13.96,7.03 -13.96,7.03c0,0 -4.98,5.02 -4.98,5.02c0,0 -3.49,6.53 -3.49,7.03c0,0.5 -0.5,231.08 -0.5,231.58c0,0.5 4.98,8.54 4.98,8.54c0,0 6.98,6.53 6.98,6.53c0,0 7.98,4.02 7.98,4.02c0,0 61.81,0 61.81,0c0,0 12.46,-4.52 12.46,-4.52c0,0 9.47,-5.02 9.47,-5.02c0,0 11.96,-11.05 11.96,-11.05c0,0 6.98,-9.04 6.98,-9.04c0,0 5.48,-13.56 5.48,-13.56c0,0 1.5,-20.09 1.5,-20.09c0,0 0,-6.53 0,-6.53c0,0 50.84,0.5 50.84,0.5c0,0 1,121.57 1,121.57c0,0 -320,-0.5 -320,-0.5c0,0 0,-14.57 0,-14.57c0,0 0,-36.17 0,-36.17c0,0 7.98,-1 7.98,-1c0,0 7.98,-0.5 7.98,-0.5c0,0 4.49,-2.01 4.49,-2.01c0,0 6.48,-4.52 6.48,-4.52c0,0 3.49,-4.02 3.49,-4.02c0,0 1.99,-5.02 1.99,-5.02c0,0 2.49,-8.04 2.49,-8.04c0,0 -0.5,-181.85 -0.5,-181.85z" fill="#333333" id="svg_9" stroke="#333333"/>
 </g>
</svg>